<svg version="1.2" xmlns="http://www.w3.org/2000/svg" viewBox="0 0 1080 1080" width="1080" height="1080">
	<title>AHORRAENERGiA-svg</title>
	<style>
		.s0 { fill: #000000;stroke: #ffffff;stroke-width: 1.1 } 
	</style>
	<g id="7fee962b-08d4-47d3-9c6b-22bea24efe57">
	</g>
	<g id="b5212b65-2174-4fab-93ca-aec04a718639">
	</g>
	<g id="Layer">
		<g id="Layer">
			<g id="svg_2">
				<path id="Layer" class="s0" d="m508.7 305.5c-25.4 0-124.6 0.5-151-0.5-7.6-0.5-19.7 1-22-6.3-2.4-9.1 3.8-15.3 8.2-21.1 36.9-47.9 74.3-95.8 111.7-143.7 28.7-36.9 57-73.8 86.2-110.2 4.8-6.3 11.1-17.8 20.1-13.9 9.6 1.9 7.3 15.3 6.7 23-1.9 49.4-10.1 167.7-10.5 180.1 12 0 109.8-0.5 146.2 0.5 9.6 0 26.4 1 28.3 6.7 2.9 5.4-6.7 17.8-12 24.5-39.3 49.4-176.9 220-206.6 255.5-4.8 5.7-12 16.8-21.1 11.5-7.2-3.4-5.3-14.9-4.3-22.1 5.7-59.4 12.9-119.3 20.1-184z"/>
			</g>
			<g id="svg_3">
				<path id="Layer" class="s0" d="m480.4 384.4h-10.1-4.8-7.2c-58.5 0-82.4 23.5-82.4 81.4v90.1 107.3c0 4.4-0.6 8.2-0.6 12.5h-18.2-26.8c-12.5 0-24.5 0-36.9 0-17.3 0-39.3 2.9-50.4 27.3-10.5 24.5 1.9 43.7 12 55.6 46.2 53.8 91.8 107.4 137.2 161.5 36.4 42.7 72.4 85.3 108.8 128.4 12.5 14.4 25.5 21.6 39.9 21.6 11 0 22-4.8 31.6-13.9l0.4 0.5 6.3-7.2c37.4-43.7 73.3-86.3 109.2-128.9 45.6-53.7 91.6-107.9 137.1-161.6 10.1-12 22.5-31.1 12-55.5-10.6-24.5-33.1-27.4-48.9-27.4-13.4 0-25.4 0-37.9 0h-26.8-18.2c-0.5-4.3-0.5-8.6-0.5-12.4v-107.7-89.7c0-49.4-17.8-73.8-58.5-79.5-0.4 0-40.8 53.7-40.8 53.7h8.7 6.2c26.9 0 27.8 0 27.8 30.6v93 120.7c0 40.3 7.2 47.5 48.5 47.5h37.3 30.7 10.5l-88.7 104.5-121.2 142.3-24.5 28.8-113.9-133.8-120.8-142.3h9.6 29.7 38.9c40.7 0 47.9-7.3 48.4-47.5v-120.2-93.9c0-29.7 0-29.7 23.5-29.7h7.2 10.1z"/>
			</g>
		</g>
	</g>
</svg>