<?xml version="1.0" encoding="UTF-8" standalone="no" ?>
<!DOCTYPE svg PUBLIC "-//W3C//DTD SVG 1.1//EN" "http://www.w3.org/Graphics/SVG/1.1/DTD/svg11.dtd">
<svg xmlns="http://www.w3.org/2000/svg" xmlns:xlink="http://www.w3.org/1999/xlink" version="1.1" width="1080" height="1080" viewBox="0 0 1080 1080" xml:space="preserve">
<desc>Created with Fabric.js 5.2.4</desc>
<defs>
</defs>
<rect x="0" y="0" width="100%" height="100%" fill="transparent"></rect>
<g transform="matrix(1 0 0 1 540 540)" id="7fee962b-08d4-47d3-9c6b-22bea24efe57"  >
<rect style="stroke: none; stroke-width: 1; stroke-dasharray: none; stroke-linecap: butt; stroke-dashoffset: 0; stroke-linejoin: miter; stroke-miterlimit: 4; fill: rgb(255,255,255); fill-rule: nonzero; opacity: 1; visibility: hidden;" vector-effect="non-scaling-stroke"  x="-540" y="-540" rx="0" ry="0" width="1080" height="1080" />
</g>
<g transform="matrix(1 0 0 1 540 540)" id="b5212b65-2174-4fab-93ca-aec04a718639"  >
</g>
<g transform="matrix(1 0 0 1 540 540)" id="45d0f489-0038-4c17-a0b0-05e8923a8395"  >
<path style="stroke: rgb(0,0,0); stroke-width: 0; stroke-dasharray: none; stroke-linecap: butt; stroke-dashoffset: 0; stroke-linejoin: miter; stroke-miterlimit: 4; fill: rgb(0,0,0); fill-rule: nonzero; opacity: 1;" vector-effect="non-scaling-stroke"  transform=" translate(-59.99, -59.98)" d="M 36.4 44.39 C 31.02 45.92 26.009999999999998 46.97 21.259999999999998 48.8 C 17.33 50.33 13.45 52.39 10.079999999999998 54.93 C 5.8199999999999985 58.15 5.8599999999999985 61.62 9.889999999999999 65.06 C 12.399999999999999 67.19 15.349999999999998 68.76 18.119999999999997 70.59 C 18.31 70.4 18.49 70.22 18.639999999999997 70.03 C 17.849999999999998 68.57000000000001 17.069999999999997 67.11 16.319999999999997 65.62 C 15.239999999999997 63.38 15.759999999999996 61.36000000000001 17.699999999999996 60.42 C 19.529999999999994 59.52 21.359999999999996 60.2 22.519999999999996 62.36 C 24.729999999999997 66.4 26.889999999999997 70.47 29.029999999999994 74.55 C 30.379999999999995 77.17 29.739999999999995 79 27.009999999999994 80.2 C 22.899999999999995 82.03 18.749999999999993 83.86 14.559999999999995 85.62 C 12.239999999999995 86.63000000000001 10.189999999999994 85.96000000000001 9.359999999999996 84.09 C 8.539999999999996 82.15 9.399999999999995 80.28 11.679999999999996 79.19 C 13.029999999999996 78.55 14.369999999999996 77.96 16.129999999999995 77.17 C 15.159999999999995 76.68 14.409999999999995 76.38 13.769999999999996 75.97 C 10.479999999999997 73.76 6.849999999999996 71.89 4.049999999999995 69.17 C -1.7 63.57 -1.51 56.54 4.1 50.71 C 7.7299999999999995 46.9 12.25 44.35 17.189999999999998 42.71 C 23.699999999999996 40.54 30.309999999999995 38.82 37.269999999999996 36.8 C 38.019999999999996 33.47 38.8 29.509999999999998 39.849999999999994 25.619999999999997 C 41.75999999999999 18.519999999999996 44.21999999999999 11.599999999999998 49.08 5.839999999999996 C 55.739999999999995 -2.0100000000000033 64.17999999999999 -2.0900000000000034 70.8 5.839999999999996 C 73.16 8.679999999999996 74.95 12.049999999999997 77.12 15.369999999999996 C 77.79 13.989999999999995 78.47 12.489999999999995 79.21000000000001 11.029999999999996 C 80.41000000000001 8.559999999999995 82.31 7.699999999999996 84.29 8.709999999999996 C 86.16000000000001 9.639999999999995 86.72000000000001 11.659999999999997 85.67 13.939999999999996 C 83.76 18.049999999999997 81.86 22.129999999999995 79.91 26.199999999999996 C 78.6 28.929999999999996 76.81 29.529999999999994 74.19 28.069999999999997 C 70.14999999999999 25.83 66.15 23.549999999999997 62.19 21.269999999999996 C 60.099999999999994 20.069999999999997 59.46 18.169999999999995 60.43 16.369999999999997 C 61.48 14.459999999999997 63.46 13.979999999999997 65.66 15.169999999999998 C 66.82 15.809999999999999 67.97999999999999 16.479999999999997 69.17 17.15 C 68.8 13.669999999999998 64.35 7.989999999999998 61.17 7.3199999999999985 C 59.86 7.059999999999999 58.22 7.509999999999999 57.02 8.139999999999999 C 55.790000000000006 8.809999999999999 54.7 10.009999999999998 53.84 11.209999999999999 C 48.53 18.65 46.440000000000005 27.25 44.720000000000006 36.339999999999996 C 47.370000000000005 36.19 49.730000000000004 36.04 52.120000000000005 35.93 C 69.02000000000001 35.14 85.73 36.3 101.7 42.32 C 106.3 44.04 110.79 46.58 114.64 49.65 C 122.12 55.629999999999995 121.89 64.23 114.68 70.55 C 108.44000000000001 76.00999999999999 100.81 78.59 92.99000000000001 80.57 C 81.66000000000001 83.49 70.07000000000001 84.46 58.41000000000001 84.38 C 55.79000000000001 84.38 54.07000000000001 82.88 54.07000000000001 80.75 C 54.11000000000001 78.58 55.720000000000006 77.31 58.480000000000004 77.31 C 71.9 77.27 85.21000000000001 76.23 97.92 71.59 C 102.11 70.06 106.22 67.89 109.81 65.23 C 114.37 61.870000000000005 114.18 58.28 109.85000000000001 54.57000000000001 C 104.62 50.080000000000005 98.18 48.03000000000001 91.68 46.38000000000001 C 75.98 42.42000000000001 60.05000000000001 41.860000000000014 43.67000000000001 43.61000000000001 C 43.41000000000001 46.940000000000005 43.07000000000001 50.27000000000001 42.96000000000001 53.56 C 42.36000000000001 69.04 43.45000000000001 84.33 48.900000000000006 98.99000000000001 C 50.36000000000001 102.88000000000001 52.49000000000001 106.65 55.03000000000001 109.94000000000001 C 58.21000000000001 114.09000000000002 61.46000000000001 113.94000000000001 65.05000000000001 110.16000000000001 C 69.01 105.94000000000001 70.88000000000001 100.63000000000001 72.68 95.28000000000002 C 73.84 91.77000000000001 75.22000000000001 90.53000000000002 77.54 91.24000000000001 C 79.93 91.99000000000001 80.49000000000001 93.75000000000001 79.45 97.26 C 77.58 103.43 75.19 109.34 70.93 114.27000000000001 C 64.27000000000001 121.97000000000001 55.900000000000006 121.97000000000001 49.32000000000001 114.20000000000002 C 44.010000000000005 107.96000000000002 41.470000000000006 100.40000000000002 39.56000000000001 92.66000000000003 C 35.5 77.18 34.83 61.33 36.4 44.39 z" stroke-linecap="round" />
</g>
</svg>