<?xml version="1.0" encoding="utf-8"?>
<!-- Generator: Adobe Illustrator 26.1.0, SVG Export Plug-In . SVG Version: 6.00 Build 0)  -->
<svg version="1.1" id="Capa_1" xmlns="http://www.w3.org/2000/svg" xmlns:xlink="http://www.w3.org/1999/xlink" x="0px" y="0px"
	 viewBox="0 0 120 120" style="enable-background:new 0 0 120 120;" xml:space="preserve">
<style type="text/css">
	.st0{fill:#FFFFFF;}
</style>
<g>
	<path class="st0" d="M60.03,120.15C32.13,119.86,8.09,99.16,4.29,71.78C0.96,48.2,12.81,25.02,33.8,13.92
		c0.46-0.23,0.98-0.52,1.44-0.75c2.47-1.15,4.6-0.58,5.58,1.5c0.98,2.01,0.17,3.85-2.13,5.18c-3.05,1.84-6.33,3.51-9.03,5.81
		C14.01,38.88,7.8,55.79,12.86,75.63c5.06,19.61,18.23,31.92,38.19,35.72c27.15,5.23,52.4-12.88,57-40.2
		c3.34-20.01-7.13-40.95-25.36-50.55c-0.46-0.23-0.98-0.46-1.44-0.75c-2.42-1.32-3.22-3.34-2.13-5.35c1.04-1.96,3.22-2.7,5.41-1.32
		c4.6,2.93,9.55,5.58,13.4,9.26c16.16,15.47,22.03,34.45,16.05,56.08c-5.98,21.63-20.76,34.97-42.68,40.14
		C67.67,119.52,63.82,119.69,60.03,120.15z"/>
	<path class="st0" d="M63.71,18.87c0,4.77,0,9.49,0,14.26c0,2.7-1.5,4.37-3.8,4.31c-2.24-0.06-3.68-1.67-3.68-4.26
		c0-9.66,0-19.32,0-28.99c0-2.59,1.44-4.2,3.68-4.2c2.3-0.06,3.8,1.61,3.8,4.37C63.71,9.2,63.71,14.03,63.71,18.87z"/>
</g>
</svg>
