<?xml version="1.0" encoding="utf-8"?>
<!-- Generator: Adobe Illustrator 26.1.0, SVG Export Plug-In . SVG Version: 6.00 Build 0)  -->
<svg version="1.1" id="Capa_1" xmlns="http://www.w3.org/2000/svg" xmlns:xlink="http://www.w3.org/1999/xlink" x="0px" y="0px"
	 viewBox="0 0 120 120" style="enable-background:new 0 0 120 120;" xml:space="preserve">
<style type="text/css">
	.st0{fill:#FFFFFF;}
</style>
<g>
	<path class="st0" d="M103.6,120c-29.1,0-58.1,0-87.2,0c-0.2-0.1-0.3-0.2-0.5-0.2c-5-1.3-7.9-5.1-7.9-10.2c0-33.1,0-66.2,0-99.2
		C8,4.5,12.4,0,18.2,0c27.9,0,55.8,0,83.7,0c5.7,0,10.2,4.5,10.2,10.2c0,33.2,0,66.5,0,99.7c0,4.3-2.1,7.3-5.9,9.2
		C105.3,119.5,104.4,119.7,103.6,120z M12.5,22.6c0.7,0,1.2,0,1.8,0c27.8,0,55.6,0,83.3,0c0.5,0,1.1,0,1.6,0.1c1.1,0.2,1.8,1,1.9,2
		c0.1,1.1-0.6,2.1-1.7,2.3c-0.5,0.1-1,0.1-1.5,0.1c-27.9,0-55.9,0-83.8,0c-0.5,0-1,0-1.6,0c0,0.5,0,1,0,1.4c0,26.8,0,53.6,0,80.4
		c0,4.3,2.3,6.6,6.6,6.6c27.3,0,54.6,0,81.9,0c4.4,0,6.6-2.3,6.6-6.7c0-10.4,0-20.9,0-31.3c0-22.2,0-44.4,0-66.6
		c0-1.3-0.3-2.7-0.9-3.8c-1.1-2.1-3.1-2.7-5.4-2.7c-24.2,0-48.4,0-72.5,0c-3.4,0-6.8,0-10.2,0c-3.3,0-5.8,2.2-5.9,5.4
		C12.3,14.1,12.5,18.3,12.5,22.6z"/>
	<path class="st0" d="M42.6,63c12.1,0,21.9,9.8,21.9,22c0,12.1-9.8,21.9-21.9,21.9c-12.1,0-22-9.9-22-21.9
		C20.6,72.8,30.4,63,42.6,63z M25.2,84.8c-0.1,9.5,7.6,17.3,17.3,17.4C52,102.4,59.9,94.6,60,85c0.1-9.4-7.7-17.4-17.1-17.5
		C33.1,67.4,25.2,75.1,25.2,84.8z"/>
	<path class="st0" d="M94.8,84.9c0-7.2-4.3-13.5-11.2-16.2c-1.5-0.6-2.2-1.5-2-2.6c0.3-1.6,1.7-2.3,3.4-1.7
		C92.3,67.2,97,72.4,98.8,80c2.6,10.7-3.5,21.8-13.8,25.5c-1.1,0.4-2.1,0.3-2.9-0.6c-0.7-0.9-0.7-1.8,0-2.7c0.3-0.4,0.9-0.7,1.4-1
		c6.2-2.5,9.8-7,11.1-13.6c0-0.2,0.1-0.4,0.1-0.6C94.7,86.3,94.8,85.6,94.8,84.9z"/>
	<path class="st0" d="M82,84.1c0,9.9-5.7,18.2-14.3,21.4c-1.5,0.6-2.8,0.1-3.3-1.2c-0.5-1.2,0.2-2.4,1.7-3c5.8-2.3,9.5-6.5,11-12.6
		c1.9-8-2.5-16.5-10.2-19.7c-0.3-0.1-0.7-0.3-1-0.4c-1.4-0.6-1.9-1.8-1.5-3c0.5-1.2,1.7-1.7,3.1-1.2c7.2,2.8,11.9,8,13.8,15.5
		C81.7,81.4,81.8,83.2,82,84.1z"/>
	<path class="st0" d="M60,16.2c-2.1,0-4.1,0-6.2,0c-1.6,0-2.5-0.9-2.5-2.3c0-1.3,0.9-2.2,2.5-2.2c4.2,0,8.4,0,12.5,0
		c1.5,0,2.4,0.9,2.4,2.3c0,1.3-0.9,2.2-2.4,2.2C64.2,16.2,62.1,16.2,60,16.2z"/>
	<path class="st0" d="M62.3,44.1c0,1.8,0,3.7,0,5.5c0,1.7-0.9,2.7-2.3,2.7c-1.4,0-2.3-1-2.3-2.7c0-3.7,0-7.4,0-11.1
		c0-1.7,0.9-2.7,2.3-2.7c1.4,0,2.3,1,2.3,2.7C62.3,40.4,62.3,42.3,62.3,44.1z"/>
	<path class="st0" d="M39.4,45.2c0.1-0.2,0.1-0.6,0.3-1c1.4-2.7,2.8-5.4,4.2-8.1c0.7-1.4,2-1.9,3.2-1.2c1.2,0.6,1.5,1.9,0.9,3.2
		c-1.4,2.8-2.8,5.5-4.3,8.3C43.1,47.6,42,48,41,47.8C40,47.5,39.3,46.6,39.4,45.2z"/>
	<path class="st0" d="M80.4,45.3c0,1.3-0.5,2-1.5,2.4c-1,0.4-2,0.1-2.6-0.8c-1.6-3-3.2-6-4.7-9.1c-0.5-1.1,0.1-2.3,1.2-2.8
		c1.1-0.5,2.3-0.1,2.9,1c1,1.8,1.9,3.7,2.9,5.6c0.5,0.9,1,1.9,1.4,2.8C80.3,44.7,80.4,45.1,80.4,45.3z"/>
	<path class="st0" d="M37.6,16.2c-0.7,0-1.3,0-2,0c-1.1-0.1-2-1.1-2-2.2c0-1.1,0.9-2.1,2-2.2c1.3-0.1,2.7-0.1,4,0c1.2,0,2,1,2,2.2
		c0,1.2-0.9,2.2-2.1,2.3C38.9,16.2,38.2,16.2,37.6,16.2C37.6,16.2,37.6,16.2,37.6,16.2z"/>
	<path class="st0" d="M82.4,16.2c-0.6,0-1.2,0-1.9,0c-1.2-0.1-2.1-1.1-2.1-2.2c0-1.2,0.9-2.2,2.1-2.2c1.2,0,2.5,0,3.7,0
		c1.2,0,2.1,1,2.2,2.2c0,1.2-0.9,2.2-2.2,2.3C83.6,16.2,83,16.2,82.4,16.2z"/>
</g>
</svg>
