<svg id="Capa_1" data-name="Capa 1" xmlns="http://www.w3.org/2000/svg" viewBox="0 0 120 120"><defs><style>.cls-1{fill:#fff;}</style></defs><path class="cls-1" d="M90.14,14.25,98,4.68a4.34,4.34,0,0,1,6.1-.61h0a4.35,4.35,0,0,1,.61,6.1l-7.85,9.57Z"/><path class="cls-1" d="M61.69,35.9,30.11,74.45a12.61,12.61,0,0,0,.59,16.66L11.75,114.24a1.66,1.66,0,0,0,2.57,2.1l19-23.14a12.61,12.61,0,0,0,16.37-2.75L81.22,51.9Z"/><rect class="cls-1" x="80.54" y="19.72" width="14.36" height="8.66" transform="translate(13.53 76.66) rotate(-50.68)"/><rect class="cls-1" x="70.13" y="32.42" width="14.36" height="8.66" transform="translate(-0.11 73.27) rotate(-50.68)"/></svg>