<svg xmlns="http://www.w3.org/2000/svg" id="Capa_1" data-name="Capa 1" viewBox="0 0 120 120"><defs fill="#000000"><style>.cls-1{fill:#0a0a0a;}</style></defs><path class="cls-1" d="M56.34,34.18c-2.9,0-14.1.08-17.12,0-.88,0-2.24.09-2.52-.7-.3-1.05.43-1.74.93-2.39,4.19-5.45,8.44-10.85,12.67-16.27,3.26-4.16,6.48-8.34,9.79-12.45.56-.69,1.23-2,2.29-1.6,1.07.2.79,1.76.75,2.62C62.88,9,62,22.34,62,23.78c1.33,0,12.42,0,16.53,0,1.07,0,3,.08,3.2.74s-.75,2-1.38,2.79c-4.43,5.58-20,24.9-23.4,29-.54.65-1.34,1.92-2.39,1.33-.82-.37-.58-1.7-.5-2.51C54.72,48.31,55.52,41.49,56.34,34.18Z" fill="#000000"/><path class="cls-1" d="M53.16,41.36H50.71c-6.61,0-9.31,2.68-9.32,9.2V72.91c0,.47,0,.93-.07,1.43H32c-1.93,0-4.46.32-5.68,3.1s.19,4.93,1.36,6.29Q35.46,92.84,43.21,102q6.16,7.26,12.34,14.52A5.92,5.92,0,0,0,60,119a5.31,5.31,0,0,0,3.6-1.55l.06,0,.69-.79c4.21-4.94,8.3-9.76,12.39-14.58q7.76-9.15,15.54-18.29c1.17-1.37,2.58-3.51,1.36-6.29s-3.76-3.11-5.56-3.11c-1.51,0-2.9,0-4.31,0H78.69c0-.49-.07-1-.07-1.42V50.62c0-5.6-2-8.34-6.61-9,0,0-4.64,6.07-4.64,6.07h1.7c3,0,3.17,0,3.17,3.47V75.36c0,4.58.82,5.39,5.46,5.39h8.86l-10,11.82L62.79,108.71,60,112,47.14,96.81,33.45,80.69h8.86c4.64,0,5.46-.8,5.46-5.39V51.07c0-3.35,0-3.35,2.68-3.35h2Z" fill="#000000"/></svg>