<svg id="Capa_1" data-name="Capa 1" xmlns="http://www.w3.org/2000/svg" viewBox="0 0 120 120"><defs><style>.cls-1{fill:#fff;}</style></defs><path class="cls-1" d="M90,10.91H79.09V5.45A5.45,5.45,0,0,0,73.64,0H46.36a5.45,5.45,0,0,0-5.45,5.45v5.46H30a8.19,8.19,0,0,0-8.18,8.18v92.73A8.19,8.19,0,0,0,30,120H90a8.19,8.19,0,0,0,8.18-8.18V19.09A8.19,8.19,0,0,0,90,10.91ZM73.48,56.8a2.33,2.33,0,0,1,1.89,3.94L52.55,89.4a2.33,2.33,0,0,1-1.8,1.07h-.12a1.56,1.56,0,0,1-1.27-.67,2.31,2.31,0,0,1-.11-2.31l7.06-17.66-9.76-.12a2.58,2.58,0,0,1-2.36-3.81L57.38,38.52A4.24,4.24,0,0,1,61,36.21H73.48a2.49,2.49,0,0,1,2.24,3.85L66.21,56.8Z"/></svg>