<svg id="Capa_1" data-name="Capa 1" xmlns="http://www.w3.org/2000/svg" viewBox="0 0 120 120"><defs><style>.cls-1{fill:#fff;}.cls-2{fill:none;stroke:#fff;stroke-linecap:round;stroke-miterlimit:10;stroke-width:2px;}</style></defs><path class="cls-1" d="M115.2,25.71l-.41-.14H5.65l-.53,0-.41.14A7.29,7.29,0,0,0,0,33.31c0,.18,0,.47,0,.85A54.35,54.35,0,0,0,4.72,56.43C10.42,68.86,20.79,77.79,35.65,83l.42.14H83.48l.55,0,.42-.15c14.76-5.17,25.13-14.1,30.83-26.53A54.47,54.47,0,0,0,120,34.15c0-.36,0-.65,0-.83A7.32,7.32,0,0,0,115.2,25.71ZM42.93,76.59a27.39,27.39,0,0,1-12.51-2.93C18.51,67.56,6.92,56,6.59,34.07c0-.53,0-.91,0-1.19a1.34,1.34,0,0,1,.12-.75H113.32a1.3,1.3,0,0,1,.12.74c0,.25,0,.59,0,1v.16C113.08,56,101.49,67.56,89.58,73.66a27.39,27.39,0,0,1-12.51,2.93Z"/><path class="cls-1" d="M36.6,89.67a4.76,4.76,0,0,0,4.76,4.76H78.79a4.76,4.76,0,0,0,4.76-4.76V85.29H36.6Zm42.19,1.08H41.36a1.08,1.08,0,0,1-1.08-1.08V89H79.87v.7A1.08,1.08,0,0,1,78.79,90.75Z"/><path class="cls-2" d="M92.27,45.7l4.25-5.56a.85.85,0,0,1,1.33,0l4.26,5.56"/></svg>