<?xml version="1.0" encoding="utf-8"?>
<!-- Generator: Adobe Illustrator 26.1.0, SVG Export Plug-In . SVG Version: 6.00 Build 0)  -->
<svg version="1.1" id="Capa_1" xmlns="http://www.w3.org/2000/svg" xmlns:xlink="http://www.w3.org/1999/xlink" x="0px" y="0px"
	 viewBox="0 0 120 120" style="enable-background:new 0 0 120 120;" xml:space="preserve">
<style type="text/css">
	.st0{fill:#FFFFFF;}
</style>
<g>
	<g>
		<path class="st0" d="M118.92,8.57c-1.34-2.49-3.74-3.98-6.42-3.98H29.43c-4.12,0-7.48,3.69-7.48,8.24v15.53H9.01
			C4.03,28.36,0,32.39,0,37.38v40.22c0,2.01,1.63,3.69,3.69,3.69c2.01,0,3.69-1.63,3.69-3.69V37.38c0-0.91,0.72-1.68,1.68-1.68H22
			v71.47c0,4.55,3.36,8.24,7.48,8.24h75.88c4.12,0,7.48-3.69,7.48-8.24v-80.1c0-0.29,0.1-0.58,0.19-0.81l5.56-8.63
			C120.36,14.99,120.46,11.4,118.92,8.57z M112.45,13.65l-5.56,8.63c-0.91,1.39-1.39,3.07-1.39,4.79v80.1
			c0,0.48-0.19,0.77-0.29,0.91H29.62c-0.1-0.1-0.29-0.43-0.29-0.91V90.73h20.99c2.01,0,3.69-1.63,3.69-3.69
			c0-2.01-1.63-3.69-3.69-3.69H29.34V69.2h32.12c2.01,0,3.69-1.63,3.69-3.69c0-2.01-1.63-3.69-3.69-3.69H29.34V47.68h40.07
			c2.01,0,3.69-1.63,3.69-3.69s-1.63-3.69-3.69-3.69H29.34V12.88c0-0.48,0.19-0.77,0.29-0.91h82.78
			C112.6,12.21,112.83,13.03,112.45,13.65z"/>
	</g>
</g>
</svg>
