<svg id="Capa_1" data-name="Capa 1" xmlns="http://www.w3.org/2000/svg" viewBox="0 0 120 120"><defs><style>.cls-1{fill:#fff;}</style></defs><path class="cls-1" d="M106.73,115.27H28.5c-3.24,0-5.87-3-5.87-6.65V11.38c0-3.67,2.63-6.65,5.87-6.65h85.62a5.7,5.7,0,0,1,5,3.13,7.38,7.38,0,0,1-.25,7.45l-5.75,8.91a3.4,3.4,0,0,0-.51,1.83v82.57C112.6,112.29,110,115.27,106.73,115.27ZM28.5,8.6c-1.08,0-2,1.27-2,2.78v97.24c0,1.51.92,2.78,2,2.78h78.23c1.08,0,2-1.27,2-2.78V26.05a7.19,7.19,0,0,1,1.13-3.93l5.75-8.91a3.54,3.54,0,0,0,.1-3.5,1.9,1.9,0,0,0-1.59-1.11Z"/><path class="cls-1" d="M69.68,45.56H24.57a1.94,1.94,0,1,1,0-3.87H69.68a1.94,1.94,0,1,1,0,3.87Z"/><path class="cls-1" d="M61.46,67.7H24.57a1.94,1.94,0,1,1,0-3.87H61.46a1.94,1.94,0,1,1,0,3.87Z"/><path class="cls-1" d="M50,89.84H24.57a1.94,1.94,0,1,1,0-3.87H50a1.94,1.94,0,1,1,0,3.87Z"/><path class="cls-1" d="M1.93,80.07A1.94,1.94,0,0,1,0,78.13V36.67a7.43,7.43,0,0,1,7.43-7.43H24.57a1.94,1.94,0,0,1,0,3.87H7.43a3.57,3.57,0,0,0-3.56,3.56V78.13A1.94,1.94,0,0,1,1.93,80.07Z"/></svg>