<svg id="Capa_1" data-name="Capa 1" xmlns="http://www.w3.org/2000/svg" viewBox="0 0 120 120"><defs><style>.cls-1{fill:#fff;}</style></defs><path class="cls-1" d="M97.08,58.55q0,21,0,42c0,11.55-7.31,18.85-18.84,18.85-12,0-24-.24-36,.07a18.3,18.3,0,0,1-18.91-18.95c.31-21.12.07-42.25.13-63.37a5.84,5.84,0,0,0-1.74-4.51C16.51,27.27,11.4,21.76,6.24,16.31,5,15,4,13.7,4.78,11.79S7.32,9.56,9.2,9.56q39.36,0,78.72,0c1.77,0,2.84-.27,3.71-2.15A12.26,12.26,0,0,1,105.15.75a12.42,12.42,0,0,1,10.26,12.11c.15,15.48.08,31,0,46.43A3.59,3.59,0,0,1,112,63.17c-2,0-3.47-1.59-3.47-4.07q0-22.05,0-44.11c0-4.77-2-7.47-5.67-7.49s-5.75,2.67-5.75,7.41ZM16.23,16.69c4.28,4.55,8.08,8.71,12,12.73A7.34,7.34,0,0,1,30.45,35q-.09,33,0,65.93c0,7.23,4.33,11.5,11.59,11.5q18.12,0,36.23,0c7.68,0,11.85-4.19,11.86-11.94q0-40.62,0-81.24V16.69Z"/><path class="cls-1" d="M76,93.74c-7.74,0-15.09,0-22.44,0A18.06,18.06,0,0,1,51,93.67a3.57,3.57,0,0,1-3.25-3.61,3.43,3.43,0,0,1,3.55-3.26c5.88-.07,11.77,0,17.65,0h6.85V79.52c-3.15,0-6.37.08-9.58,0-1.09,0-2.54-.26-3.14-1A4.9,4.9,0,0,1,62.19,75c.27-1.71,1.79-2.41,3.5-2.42,3.32,0,6.64,0,10.14,0V65.44c-3.21,0-6.44.17-9.64-.08a5.66,5.66,0,0,1-3.71-1.75c-1.68-2.15.1-5,3.05-5.11,3.38-.09,6.77,0,10.31,0V51.34c-.79,0-1.61-.1-2.42-.1H52.28c-2.87,0-4.55-1.34-4.51-3.51s1.73-3.46,4.62-3.46c7,0,13.93,0,20.9,0H76c0-1.34-.05-2.41,0-3.47a3.41,3.41,0,0,1,3.36-3.45,3.47,3.47,0,0,1,3.53,3.07A8,8,0,0,1,83,42Q83,69,83,95.9a7.9,7.9,0,0,1-.24,2.28A3.42,3.42,0,0,1,76,97.49C75.94,96.36,76,95.21,76,93.74Z"/></svg>