<svg id="Capa_1" data-name="Capa 1" xmlns="http://www.w3.org/2000/svg" viewBox="0 0 120 120"><defs><style>.cls-1{fill:#fff;}</style></defs><path class="cls-1" d="M.89,70.81c26.27,0,47.57-22,47.57-49.19l.09,3.16c1.53,25,21.11,44.91,45.4,46l2.08,0c-26.27,0-47.57,22-47.57,49.19l0-1.93C47.49,93,28.32,72.65,4.22,70.93Z"/><path class="cls-1" d="M68.5,26.17c14,0,25.31-11.72,25.31-26.17l0,1.68C94.67,15,105.08,25.57,118,26.14l1.1,0c-14,0-25.3,11.71-25.3,26.17l0-1c-.5-13.37-10.7-24.16-23.52-25.08Z"/></svg>