<svg id="Capa_1" data-name="Capa 1" xmlns="http://www.w3.org/2000/svg" viewBox="0 0 120 120"><defs><style>.cls-1{fill:#2b2b2b;}</style></defs><path class="cls-1" d="M18.34,29h0c.57,0,2.23.54,5.4,5.47l2.32,3.64c4.69,7.34,3.2,9.59,1.27,11.28l-3.18,2.77-.6.41c-1.67,1.12-5.14,3.44-5.78,8.21C17,66.29,20.34,73.07,28.18,82.07S42.34,95.36,47.93,95.36c4.74,0,7.51-3.08,8.84-4.55.17-.2.41-.46.51-.55l3.17-2.77a4.65,4.65,0,0,1,3.19-1.39c2,0,4.51,1.38,7.81,4.2l3.26,2.8c4.23,3.63,4.69,5.37,4.69,6s-.71,1.43-1.32,2l-2.89,2.52-.12.11-.12.12a23,23,0,0,1-16.33,6.72h-.29c-11.56,0-24-7.56-36.94-22.48S2.56,59.5,4.3,48a23,23,0,0,1,8.93-15.24l.14-.11.14-.11L16.38,30a3.56,3.56,0,0,1,2-1.05m0-4a7.07,7.07,0,0,0-4.59,2l-2.87,2.51A27,27,0,0,0,.35,47.4c-1.92,12.71,4.14,27.25,18,43.22s27.2,23.85,40,23.85h.33a27.13,27.13,0,0,0,19.16-7.93L80.71,104c5.31-4.62,2-9.32-3.4-14l-3.25-2.8c-3.46-3-7-5.17-10.42-5.17a8.71,8.71,0,0,0-5.81,2.36l-3.19,2.79c-1.21,1-3,4.11-6.71,4.11-3.47,0-8.66-2.63-16.73-11.91-16.77-19.27-6.79-22.27-4.45-24.27l3.2-2.8c5.32-4.63,3.31-10.45-.52-16.45L27.12,32.3C24.45,28.15,21.61,25,18.34,25Z"/><path class="cls-1" d="M46.84,49.8a3,3,0,0,1-3-3V31.48a3,3,0,1,1,6,0v15.3A3,3,0,0,1,46.84,49.8Z"/><path class="cls-1" d="M89.46,49.8a3,3,0,0,1-3-3V31.48a3,3,0,1,1,6,0v15.3A3,3,0,0,1,89.46,49.8Z"/><path class="cls-1" d="M57.49,60.5a3,3,0,0,1-3-3V20.78a3,3,0,1,1,6,0V57.49A3,3,0,0,1,57.49,60.5Z"/><path class="cls-1" d="M78.81,60.5a3,3,0,0,1-3-3V20.78a3,3,0,1,1,6,0V57.49A3,3,0,0,1,78.81,60.5Z"/><path class="cls-1" d="M68.15,72.74a3,3,0,0,1-3-3V8.54a3,3,0,1,1,6,0V69.73A3,3,0,0,1,68.15,72.74Z"/><path class="cls-1" d="M117,42.3h0L99.8,42a3,3,0,0,1,0-6h.06l17.13.3a3,3,0,0,1-.05,6Z"/></svg>