<svg id="Capa_1" data-name="Capa 1" xmlns="http://www.w3.org/2000/svg" viewBox="0 0 120 120"><defs><style>.cls-1{fill:#fff;}</style></defs><path class="cls-1" d="M48,57v3.38h67.79V57.08c-.85,0-1.67-.11-2.48-.11H82.9a5.2,5.2,0,0,1-2.06-.09c-.66-.32-1.55-1-1.56-1.59s.86-1.25,1.49-1.65c.39-.25,1-.08,1.59-.08h33.87c3,0,3.18.21,3.19,3.16,0,1.55-.06,3.1,0,4.64.09,1.92-.81,2.62-2.65,2.59-3.71-.06-7.43,0-11.14,0-3.42,0-4.62,1.19-4.64,4.6q0,7.65,0,15.31c0,3.26,1.26,4.49,4.51,4.51,3.71,0,7.42.07,11.13,0,2,0,2.9.62,2.8,2.67-.09,1.85,0,3.71,0,5.57a1.89,1.89,0,0,1-2.12,2.15H4.32c-3.69,0-3.76-.06-3.73-3.8,0-7.47-.9-6.52,6.49-6.58,2.63,0,5.26,0,7.89,0s4-1.36,4-4q.09-8.12,0-16.23c0-2.85-1.32-4.09-4.17-4.12-3.87,0-7.74-.06-11.6,0C1.37,64,.48,63.26.57,61.35c.07-1.7.09-3.41,0-5.1-.11-2,.76-2.75,2.75-2.73,6,.07,12.06,0,18.09,0H92.19a5,5,0,0,1,2.06.09c.65.32,1.52,1.08,1.5,1.63s-.9,1.25-1.55,1.6a4.1,4.1,0,0,1-1.83.09H48Zm49.85,7.09a5.63,5.63,0,0,0-.82-.11q-31.79,0-63.55,0c-2.77,0-4,1.38-4.05,4.24,0,4.87,0,9.74,0,14.61,0,4.65.92,5.57,5.54,5.57,12.61,0,25.21,0,37.81.06,1,0,2.57.67,2.73,1.32.45,1.8-1,2-2.48,2q-10.78,0-21.57,0H48.06v3.4h67.66v-3.4h-47c-.62,0-1.34.2-1.83,0a12.66,12.66,0,0,1-2.09-1.67c.7-.56,1.37-1.57,2.1-1.61,3.31-.17,21.05-.08,24.38-.08h6.6ZM4.23,95.16h40V91.77c-3.64,0-7.18,0-10.71,0C28.71,91.71,26,89,26,84.26Q25.92,76.14,26,68c0-4.88,2.74-7.48,7.71-7.51H44.12V57.09H4.26v3.42c3.79,0,7.41,0,11,0,4.29.06,7.1,2.85,7.14,7.14,0,5.72.05,11.44,0,17.16A6.76,6.76,0,0,1,16,91.73c-1.23.08-2.47,0-3.71,0H4.23Z"/><path class="cls-1" d="M59.9,50c-11.48,0-19.18-12.1-14-22.34,3.75-7.34,8.12-14.37,12.28-21.51,1.07-1.83,2.49-1.85,3.54,0C65.92,13.23,70.28,20.26,74,27.61,79.32,37.93,71.52,50,59.9,50Zm.08-40c-3.91,6.9-7.79,13.21-11.12,19.79-2.54,5-.57,11.14,4,14.45a12.14,12.14,0,0,0,14.85-.37A11.91,11.91,0,0,0,71,29.15C67.57,22.82,63.85,16.68,60,9.93Z"/></svg>