<svg xmlns="http://www.w3.org/2000/svg" id="Capa_1" data-name="Capa 1" viewBox="0 0 120 120"><defs fill="#000000"><style>.cls-1{fill:#000000;}</style></defs><path class="cls-1" d="M101.39,12.34c0,6.12-18.8,11.07-42,11.07s-41.77-4.9-42-11L16,24.06c0,6.11,19.47,11.06,43.5,11.06S103,30.17,103,24.06Z" fill="#000000"/><path class="cls-1" d="M59.39,21.75c25,0,42-5.48,42-9.41,0-6.11-18.8-11.06-42-11.06-22.11,0-40.19,4.5-41.83,10.22h0l-.05.39a3.58,3.58,0,0,0-.09.45C17.39,16.27,34.4,21.75,59.39,21.75Z" fill="#000000"/><path class="cls-1" d="M17.39,12.34s0,.07,0,.1h0A.32.32,0,0,1,17.39,12.34Z" fill="#000000"/><path class="cls-1" d="M62.82,118.72l-2.54,0h-.79c-23.06.41-30.54-4.5-36.21-9.53A21.25,21.25,0,0,1,17.71,100c-1.34-4-1.77-12.71-1.81-13.68,0-1.29-.27-29.24.92-39.39a56.6,56.6,0,0,1,5.34-18.34l5,1.08a63.88,63.88,0,0,0-5.23,18c-1.14,9.77-.88,38.25-.88,38.54.11,2.31.6,9.22,1.52,12a15.94,15.94,0,0,0,4,6.73c5.13,4.55,11.56,8.65,32.86,8.25h.88c22.32.4,27.51-4.21,32.06-8.25a16,16,0,0,0,4-6.73c.91-2.78,1.4-9.69,1.52-12.11,0-.18.26-28.66-.89-38.43-1.1-9.43-5.94-19.82-5-17.84l4.21-2.63c-1-1.54,4.67,9.28,5.9,19.78,1.18,10.15.93,38.1.92,39.28S102.61,96,101.28,100a21.44,21.44,0,0,1-5.57,9.14C89.81,114.39,83.22,118.72,62.82,118.72Z" fill="#000000"/></svg>