<svg id="Capa_1" data-name="Capa 1" xmlns="http://www.w3.org/2000/svg" viewBox="0 0 120 120"><defs><style>.cls-1{fill:#fff;}</style></defs><path class="cls-1" d="M30,10.91H40.91V5.45A5.45,5.45,0,0,1,46.36,0H73.64a5.45,5.45,0,0,1,5.45,5.45v5.46H90a8.19,8.19,0,0,1,8.18,8.18v92.73A8.19,8.19,0,0,1,90,120H30a8.19,8.19,0,0,1-8.18-8.18V19.09A8.19,8.19,0,0,1,30,10.91Zm-.84,98.15a4,4,0,0,0,4,4H86.84a4,4,0,0,0,4-4V88.84a4,4,0,0,0-4-4H33.16a4,4,0,0,0-4,4Zm0-32.86a4,4,0,0,0,4,4H86.84a4,4,0,0,0,4-4V56a4,4,0,0,0-4-4H33.16a4,4,0,0,0-4,4Zm0-32.86a4,4,0,0,0,4,4H86.84a4,4,0,0,0,4-4V23.12a4,4,0,0,0-4-4H33.16a4,4,0,0,0-4,4Z"/></svg>