<?xml version="1.0" encoding="utf-8"?>
<!-- Generator: Adobe Illustrator 26.1.0, SVG Export Plug-In . SVG Version: 6.00 Build 0)  -->
<svg version="1.1" id="Capa_1" xmlns="http://www.w3.org/2000/svg" xmlns:xlink="http://www.w3.org/1999/xlink" x="0px" y="0px"
	 viewBox="0 0 120 120" style="enable-background:new 0 0 120 120;" xml:space="preserve">
<style type="text/css">
	.st0{fill:#FFFFFF;}
</style>
<g>
	<g>
		<path class="st0" d="M60,109.17c-23.54,0-42.7-19.16-42.7-42.7c0-23.04,39.48-63.19,41.15-64.86L60,0l1.55,1.61
			c1.67,1.72,41.15,41.87,41.15,64.86C102.7,90.01,83.54,109.17,60,109.17z M60,6.27c-7.39,7.77-38.32,41.37-38.32,60.14
			c0,21.1,17.16,38.32,38.32,38.32c21.1,0,38.32-17.21,38.32-38.32C98.32,47.7,67.39,14.05,60,6.27z"/>
		<path class="st0" d="M51.73,97.23c-0.22,0-0.5-0.06-0.72-0.11c-3.55-1.22-10.33-4.28-15.66-11.16c-5.05-6.5-6.55-13.27-6.94-17.77
			c-0.11-1.22,0.78-2.28,2-2.39c1.22-0.11,2.28,0.78,2.39,2c0.28,3.22,1.39,9.5,6,15.44c4.66,6,10.5,8.61,13.6,9.66
			c1.17,0.39,1.78,1.67,1.39,2.78C53.5,96.62,52.61,97.23,51.73,97.23z"/>
	</g>
	<rect x="7.14" y="113.11" class="st0" width="105.73" height="6.89"/>
</g>
</svg>
