<svg id="Capa_1" data-name="Capa 1" xmlns="http://www.w3.org/2000/svg" viewBox="0 0 120 120"><defs><style>.cls-1{fill:#fff;}</style></defs><path class="cls-1" d="M47.43,73.46H44.2v5.81h3.18a3,3,0,0,0,2.15-.7,2.65,2.65,0,0,0,.74-2,3.26,3.26,0,0,0-.76-2.25A2.72,2.72,0,0,0,47.43,73.46Z"/><path class="cls-1" d="M66.67,3.5a8.11,8.11,0,0,0-13.34,0c-6,8.71-36,53.21-36,73.8a42.7,42.7,0,0,0,85.4,0C102.7,56.71,72.69,12.21,66.67,3.5ZM35.8,89.77H30.93V69.49H35.8Zm8.29-6.88v6.88H39.2V69.49h8.09a9.41,9.41,0,0,1,4.11.86,6.37,6.37,0,0,1,2.78,2.44,6.68,6.68,0,0,1,1,3.58A5.85,5.85,0,0,1,53,81.11a8.74,8.74,0,0,1-5.82,1.78Zm0-3.77h3.2a3,3,0,0,0,2.17-.71,2.69,2.69,0,0,0,.74-2,3.26,3.26,0,0,0-.76-2.27,2.71,2.71,0,0,0-2.1-.86H44.09Zm20.52-2.89,3.32-6.74h5.58L67.85,79.55l5.82,10.22H68l-3.41-6.86L61.2,89.77H55.57l5.81-10.22L55.73,69.49H61.3Zm10.63,3.64,1.24-10.38H88.33v3.65h-8l-.47,4a6.37,6.37,0,0,1,2.92-.74,6,6,0,0,1,4.64,1.79,8.16,8.16,0,0,1,.75,8.55A6,6,0,0,1,85.7,89.2a7.68,7.68,0,0,1-3.72.85,8.22,8.22,0,0,1-3.58-.79,6.43,6.43,0,0,1-2.62-2.15,5.27,5.27,0,0,1-.93-3.1h4.71a2.6,2.6,0,0,0,.71,1.76,2.23,2.23,0,0,0,1.68.66c1.58,0,2.37-1.17,2.37-3.5q0-3.24-2.9-3.24a2.89,2.89,0,0,0-2.45,1Z"/></svg>