<?xml version="1.0" encoding="utf-8"?>
<!-- Generator: Adobe Illustrator 26.1.0, SVG Export Plug-In . SVG Version: 6.00 Build 0)  -->
<svg version="1.1" id="Capa_1" xmlns="http://www.w3.org/2000/svg" xmlns:xlink="http://www.w3.org/1999/xlink" x="0px" y="0px"
	 viewBox="0 0 120 120" style="enable-background:new 0 0 120 120;" xml:space="preserve">
<style type="text/css">
	.st0{fill:#FFFFFF;}
</style>
<g>
	<g>
		<path class="st0" d="M110.93,99.12c2.29,0,4.09-0.18,5.84,0.06c0.9,0.12,2.11,0.78,2.53,1.5c0.3,0.6-0.12,2.05-0.72,2.65
			c-3.43,3.61-6.92,7.1-10.53,10.59c-0.66,0.6-1.81,1.02-2.71,1.02c-30.27,0.06-60.54,0.06-90.87,0c-1.08,0-2.41-0.66-3.19-1.44
			c-3.13-2.95-6.14-5.96-9.03-9.09c-0.9-0.96-1.93-2.59-1.68-3.61c0.18-0.9,2.05-1.5,3.31-2.29c-5.78-6.86-3.91-14.98-1.93-22.75
			C8.33,50.32,32.7,33.83,58.76,37.02c3.49,0.42,6.68,0.54,10.05-1.26c2.71-1.44,6.02-2.05,9.09-2.77c2.65-0.66,4.93-1.68,6.8-3.73
			c1.87-2.05,4.15-3.25,6.98-3.19c0.18,0,0.3,0.06,0.48,0c1.62-0.36,4.93-7.22,4.21-8.73c-2.11-4.33-1.08-8.73,2.65-11.01
			c3.79-2.41,8.06-1.44,11.13,2.29c0.42,0.54,1.32,1.02,2.05,1.08c4.69,0.78,7.7,4.09,7.58,8.55c-0.12,4.33-3.49,7.46-8.24,7.82
			c-0.78,0.06-1.75,0.6-2.17,1.26c-1.14,1.62-2.11,3.43-3.01,5.24c-0.24,0.48-0.3,1.38-0.06,1.87c1.44,2.53,1.62,5.12,0.72,7.82
			c-0.78,2.35-0.66,4.63,0.06,7.04c1.02,3.61,1.68,7.4,2.59,11.07c0.18,0.78,0.78,1.44,1.26,2.11c2.41,3.37,5.42,6.5,7.16,10.23
			c3.85,8.24,1.68,17.99-4.75,24.49C112.43,97.62,111.89,98.16,110.93,99.12z M8.87,103.75c-0.12,0.18-0.18,0.36-0.3,0.54
			c1.68,1.62,3.37,3.37,5.18,4.87c0.66,0.6,1.75,1.02,2.65,1.02c29.07,0.06,58.07,0.06,87.14,0c0.66,0,1.5-0.06,1.93-0.42
			c1.99-1.81,3.91-3.67,5.84-5.54c-0.12-0.18-0.18-0.36-0.3-0.54c-0.72,0-1.5,0-2.23,0c-6.98,0-13.96,0-20.94,0
			c-5.66,0-11.31,0-17.03,0c-1.56,0-2.59-0.66-2.59-2.29c0-1.62,0.96-2.35,2.53-2.35c0.54,0,1.08,0,1.62,0
			c8.24,0,16.49,0.06,24.67,0c10.29-0.06,18.41-8.67,17.81-18.96c-0.24-4.69-2.05-8.79-5.72-12.1
			c-3.01,13.6-12.16,22.93-24.25,24.97c-12.4,2.05-24.43-3.01-30.63-13.48c-7.94-13.48-5.66-26.06,4.63-37.79
			c-4.27,0-8.36-0.36-12.4,0.06C23.55,44.06,5.2,64.4,4.9,87.51c-0.06,7.1,4.27,11.55,11.31,11.55c10.47,0,49.71,0,60.18,0
			c0.72,0,1.56-0.24,2.05,0.12c0.78,0.54,1.81,1.5,1.81,2.23c0,0.78-1.02,1.68-1.87,2.23c-0.48,0.3-1.38,0.12-2.05,0.12
			c-12.1,0-52.96,0-65.05,0C10.49,103.75,9.71,103.75,8.87,103.75z M79.46,88.83c0.06,0.18,0.12,0.42,0.18,0.6
			c3.67-1.08,7.58-1.75,10.95-3.37c11.43-5.42,16.67-18.29,12.88-31.35c-1.44-5.05-2.95-9.93-1.02-15.22
			c0.66-1.75-0.36-3.13-1.93-4.09c-2.29-1.32-4.57-2.59-6.8-3.97c-2.11-1.32-3.97-1.08-5.6,0.78c-2.59,2.89-5.84,4.51-9.57,5.3
			c-1.87,0.36-3.79,0.9-5.6,1.44C60.98,42.55,52.8,54.71,54.48,66.32C56.35,79.62,66.64,88.83,79.46,88.83z M101.66,30.7
			c1.26-2.17,2.41-4.21,3.61-6.2c1.26-2.11,3.01-3.25,5.54-3.25c2.77,0,4.45-1.62,4.09-3.85c-0.3-2.23-2.11-3.25-4.93-2.65
			c-1.75,0.36-2.83-0.18-3.37-1.93c-0.78-2.65-2.53-3.73-4.51-2.95c-2.23,0.84-2.89,2.95-1.5,5.36c1.32,2.35,1.2,4.57-0.12,6.8
			c-1.14,1.93-2.23,3.85-3.37,5.9C98.65,28.95,100.1,29.8,101.66,30.7z"/>
		<path class="st0" d="M38.36,55.85c-0.42,0.42-0.96,1.32-1.75,1.75c-7.04,3.67-12.28,9.09-15.77,16.25
			c-0.72,1.5-1.93,2.11-3.43,1.38c-1.44-0.72-1.5-1.99-0.84-3.37c3.97-8.18,9.93-14.32,18.05-18.41
			C36.49,52.48,38.42,53.51,38.36,55.85z"/>
		<path class="st0" d="M60.38,98.76c0.6,0.9,1.81,1.87,1.68,2.71c-0.12,0.84-1.38,1.99-2.29,2.17c-0.6,0.12-1.99-1.26-2.05-2.05
			c-0.06-0.9,1.02-1.81,1.56-2.77C59.72,98.76,60.08,98.76,60.38,98.76z"/>
	</g>
</g>
</svg>
