<svg id="Capa_1" data-name="Capa 1" xmlns="http://www.w3.org/2000/svg" viewBox="0 0 120 120"><defs><style>.cls-1{fill:#fff;}</style></defs><path class="cls-1" d="M18.55,56.65H33.71L37,59.79l-3.14,3H18.55c-.41,0-3.28-3.07-3.28-3.07Z"/><path class="cls-1" d="M41.28,40.65V55.81l-3.14,3.28-3-3.14V40.65c0-.4,3.07-3.27,3.07-3.27Z"/><path class="cls-1" d="M17.53,40.65V55.81l-3.14,3.28-3-3.14V40.65c0-.4,3.08-3.27,3.08-3.27Z"/><path class="cls-1" d="M33.71,39.77H18.55l-3.28-3.14,3.14-3h15.3c.41,0,3.27,3.07,3.27,3.07Z"/><path class="cls-1" d="M18.35,79.59H33.5l3.28,3.14-3.14,3H18.35c-.41,0-3.28-3.07-3.28-3.07Z"/><path class="cls-1" d="M41.08,63.59V78.75L37.94,82l-3-3.14V63.59c0-.4,3.08-3.27,3.08-3.27Z"/><path class="cls-1" d="M17.32,63.59V78.75L14.18,82l-3-3.14V63.59c0-.4,3.07-3.27,3.07-3.27Z"/><path class="cls-1" d="M51.65,56.69H66.81l3.28,3.14-3.14,3H51.65c-.4,0-3.27-3.07-3.27-3.07Z"/><path class="cls-1" d="M74.39,40.69V55.85l-3.14,3.28-3-3.14V40.69c0-.41,3.08-3.27,3.08-3.27Z"/><path class="cls-1" d="M50.63,40.69V55.85l-3.14,3.28-3-3.14V40.69c0-.41,3.07-3.27,3.07-3.27Z"/><path class="cls-1" d="M66.81,39.81H51.65l-3.27-3.14,3.14-3H66.81c.41,0,3.28,3.07,3.28,3.07Z"/><path class="cls-1" d="M51.45,79.63H66.6l3.28,3.14-3.14,3H51.45c-.41,0-3.28-3.07-3.28-3.07Z"/><path class="cls-1" d="M74.18,63.63V78.79L71,82.07l-3-3.14V63.63c0-.4,3.07-3.27,3.07-3.27Z"/><path class="cls-1" d="M50.43,63.63V78.79l-3.14,3.28-3-3.14V63.63c0-.4,3.07-3.27,3.07-3.27Z"/><path class="cls-1" d="M86.09,57.29h15.15l3.28,3.14-3.14,3H86.09c-.41,0-3.28-3.07-3.28-3.07Z"/><path class="cls-1" d="M108.82,41.29V56.45l-3.14,3.27-3-3.14V41.29c0-.41,3.07-3.28,3.07-3.28Z"/><path class="cls-1" d="M85.07,41.29V56.45l-3.14,3.27-3-3.14V41.29C78.92,40.88,82,38,82,38Z"/><path class="cls-1" d="M101.24,40.41H86.09l-3.28-3.14,3.14-3h15.29c.41,0,3.28,3.07,3.28,3.07Z"/><path class="cls-1" d="M85.88,80.23H101l3.28,3.14-3.14,3H85.88c-.41,0-3.27-3.07-3.27-3.07Z"/><path class="cls-1" d="M108.62,64.23V79.39l-3.14,3.27-3-3.14V64.23c0-.41,3.07-3.28,3.07-3.28Z"/><path class="cls-1" d="M84.86,64.23V79.39l-3.14,3.27-3-3.14V64.23c0-.41,3.07-3.28,3.07-3.28Z"/><path class="cls-1" d="M98.05,94H22A22,22,0,0,1,0,72V48A22,22,0,0,1,22,26h76.1A22,22,0,0,1,120,48V72A22,22,0,0,1,98.05,94ZM22,30.59A17.42,17.42,0,0,0,4.55,48V72A17.42,17.42,0,0,0,22,89.41h76.1A17.42,17.42,0,0,0,115.45,72V48a17.42,17.42,0,0,0-17.4-17.39Z"/></svg>