<svg xmlns="http://www.w3.org/2000/svg" id="Capa_1" data-name="Capa 1" viewBox="0 0 120 120"><defs fill="#000000"><style>.cls-1{fill:#000000;}</style></defs><path class="cls-1" d="M.21,54.7V18l9.36,9.37v25L3.7,58.19ZM9.57,67.55v25L.21,101.88V65.31L3.7,61.69ZM50.76,16.37l-9.23,9.36H11.19L2,16.37Zm0,87.26H2l9.24-9.36H41.53ZM43.15,52.32v-25L52.51,18V54.7l-3.42,3.49Zm9.36,13v36.57l-9.36-9.36v-25l5.94-5.86Z" fill="#000000"/><path class="cls-1" d="M67.49,54.7V18l9.36,9.37v25L71,58.19Zm9.36,12.85v25l-9.36,9.36V65.31L71,61.69Zm41.2-51.18-9.24,9.36H78.47l-9.23-9.36Zm0,87.26H69.24l9.23-9.36h30.34Zm-8.12-48.31L114.68,60l-4.75,4.68H77.35L72.73,60l4.62-4.68Zm.5-3v-25L119.79,18V54.7l-3.41,3.49Zm9.36,13v36.57l-9.36-9.36v-25l5.95-5.86Z" fill="#000000"/></svg>