<?xml version="1.0" encoding="utf-8"?>
<!-- Generator: Adobe Illustrator 26.1.0, SVG Export Plug-In . SVG Version: 6.00 Build 0)  -->
<svg version="1.1" id="Capa_1" xmlns="http://www.w3.org/2000/svg" xmlns:xlink="http://www.w3.org/1999/xlink" x="0px" y="0px"
	 viewBox="0 0 120 120" style="enable-background:new 0 0 120 120;" xml:space="preserve">
<style type="text/css">
	.st0{fill:#FFFFFF;}
</style>
<g>
	<path class="st0" d="M60.03,120.15c-10.46,0-20.92,0-31.38,0c-7.7,0-12.24-4.54-12.24-12.24c0-12.76,0-25.46,0.06-38.22
		c0-1.44-0.46-2.18-1.67-2.93C3.71,60.15-1.8,47.79,0.55,35.15c2.18-11.78,12.01-21.49,24.02-23.68c2.82-0.52,5.75-0.29,8.62-0.23
		c1.44,0.06,2.41-0.17,3.51-1.26c12.87-13.28,33.79-13.33,46.67,0c1.15,1.15,2.18,1.44,3.68,1.26c15.52-1.9,30.34,9.54,32.59,25.06
		c1.84,12.64-3.51,23.96-14.54,30.57c-1.21,0.75-1.44,1.55-1.44,2.82c0.06,12.64,0,25.29,0,37.99c0,7.99-4.48,12.47-12.47,12.47
		C80.78,120.15,70.43,120.15,60.03,120.15z M31.13,16.59c-0.29,0-0.63-0.06-1.03-0.11C19.06,16.24,9,24.06,6.24,34.98
		c-2.87,11.15,2.41,22.7,12.87,27.93c2.13,1.03,2.93,2.41,2.93,4.71c-0.11,6.38-0.06,12.82-0.06,19.19c0,1.95,0,3.85,0,5.86
		c25.52,0,50.75,0,76.21,0c0-1.03,0-1.84,0-2.7c0-7.36,0.06-14.71-0.06-22.01c-0.06-2.59,0.8-4.02,3.16-5.29
		c8.33-4.48,12.93-11.55,13.16-21.15c0.17-9.77-4.25-17.07-12.59-21.95c-4.02-2.36-8.39-3.39-13.16-2.99
		c0.98,2.59,2.07,4.83,2.7,7.18c0.69,2.47,1.03,5.06,1.32,7.59c0.29,2.59-0.86,4.14-2.64,4.14c-1.72,0.06-2.76-1.32-2.87-3.79
		c-0.46-11.38-7.99-21.26-18.85-24.83c-10.8-3.51-22.82,0.23-29.83,9.25c-3.62,4.66-5.52,9.88-5.69,15.75
		c-0.06,1.9-0.63,3.45-2.82,3.62c-1.72,0.11-2.87-1.44-2.76-3.85c0.11-1.78,0.23-3.62,0.69-5.34
		C28.88,23.08,30.09,19.86,31.13,16.59z M21.87,98.48c0,2.99,0,5.75,0,8.56c0,5.92,1.67,7.59,7.47,7.59c20.46,0,40.92,0,61.38,0
		c0.86,0,1.72,0,2.59-0.06c2.41-0.29,4.54-2.13,4.66-4.48c0.17-3.79,0.06-7.64,0.06-11.55C72.73,98.48,47.5,98.48,21.87,98.48z"/>
	<path class="st0" d="M93.31,58.43c-1.49,3.39-2.87,6.84-4.54,10.11c-1.09,2.13-2.59,4.08-4.02,5.98c-1.55,2.13-3.1,2.53-4.48,1.32
		c-1.67-1.49-1.03-2.99,0.06-4.54c1.38-1.95,2.93-3.91,4.02-6.03c1.21-2.47,2.13-5.11,2.93-7.76c0.52-1.67,1.26-2.99,3.16-2.7
		C92.27,55.03,92.85,56.41,93.31,58.43z"/>
	<path class="st0" d="M41.3,73.83c-0.75,0.86-1.21,1.95-1.95,2.24c-0.75,0.34-2.3,0.29-2.76-0.23c-4.48-5.17-8.22-10.8-9.31-17.76
		c-0.23-1.67,0.52-2.99,2.24-3.28c1.78-0.29,2.93,0.69,3.16,2.36c0.63,5.17,3.62,9.2,6.44,13.28C39.86,71.47,40.44,72.51,41.3,73.83
		z"/>
	<path class="st0" d="M57.22,65.26c0-2.41,0-4.83,0-7.24c0-1.9,0.8-3.33,2.87-3.28c1.9,0.06,2.7,1.38,2.7,3.16
		c0,5.06,0,10.17,0,15.23c0,1.9-0.8,3.33-2.82,3.28c-2.01-0.06-2.7-1.55-2.7-3.45C57.22,70.44,57.22,67.85,57.22,65.26z"/>
</g>
</svg>
