<svg xmlns="http://www.w3.org/2000/svg" id="Capa_1" data-name="Capa 1" viewBox="0 0 120 120"><defs fill="#000000"><style>.cls-1{fill:#000000;}</style></defs><path class="cls-1" d="M52.25,47c0,7.15,0,14.3.06,21.44a5,5,0,0,0,1.23,3.05c7.58,8.32,10.14,17.93,6.61,28.61s-11.33,17.32-22.68,19.16A28.13,28.13,0,0,1,8.15,104.41a28.56,28.56,0,0,1,4.74-32.76,5.42,5.42,0,0,0,1.4-3.41c.09-14,0-28,.07-42,0-9.09,5.13-16.35,13.18-18.9,12.39-3.92,24.51,5.11,24.69,18.46C52.32,32.87,52.25,39.94,52.25,47Zm-8-22.34c-.12-5.66-3.67-11.69-12-11.1-6,.42-9.49,6.61-9.5,12.54,0,15.91-.08,27.37,0,43.28a6.15,6.15,0,0,1-2.78,5.51C13.63,79.8,10.93,89.64,13.12,97c3,10.21,11.52,16.81,23.52,15.48a20.92,20.92,0,0,0,18.62-21c0-5.83-3.28-13-8.21-16.63a6,6,0,0,1-2.74-5.53C44.48,61.44,44.45,33.13,44.28,24.68Z" fill="#000000"/><path class="cls-1" d="M33.31,42.15c4.06-.22,4.77,3.72,4.77,4.5,0,9.72,0,19.45,0,29.17a2.87,2.87,0,0,0,1.77,3.05,13.9,13.9,0,0,1,6.85,17.06A14.13,14.13,0,0,1,19.17,91a13.28,13.28,0,0,1,7.35-12,3.36,3.36,0,0,0,2-3.57c-.08-9.5,0-19,0-28.51A4.52,4.52,0,0,1,33.31,42.15Z" fill="#000000"/><path class="cls-1" d="M86.28,43.86a14.56,14.56,0,0,1-14.7-14.6,14.73,14.73,0,1,1,29.45,0A14.58,14.58,0,0,1,86.28,43.86Z" fill="#000000"/><path class="cls-1" d="M71.66,17.3c-2.1.11-6.62-4.63-6.39-6.71a2.73,2.73,0,0,1,4.32-2,20.77,20.77,0,0,1,4.31,4.27A2.86,2.86,0,0,1,71.66,17.3Z" fill="#000000"/><path class="cls-1" d="M84.37,10.28C82.81,8.88,83,2.33,84.6,1a2.72,2.72,0,0,1,4.49,1.61,20.52,20.52,0,0,1,0,6.06A2.86,2.86,0,0,1,84.37,10.28Z" fill="#000000"/><path class="cls-1" d="M84.37,10.28C82.81,8.88,83,2.33,84.6,1a2.72,2.72,0,0,1,4.49,1.61,20.52,20.52,0,0,1,0,6.06A2.86,2.86,0,0,1,84.37,10.28Z" fill="#000000"/><path class="cls-1" d="M101,17.31c-2-.1-3.6-2.53-2.4-4.2a20.83,20.83,0,0,1,4.68-4.69c1.7-1.2,4.11.38,4.18,2.44C107.48,12.7,102.77,17.39,101,17.31Z" fill="#000000"/><path class="cls-1" d="M71.66,41c-2.1-.11-6.62,4.64-6.39,6.71a2.73,2.73,0,0,0,4.32,2,20.77,20.77,0,0,0,4.31-4.27A2.87,2.87,0,0,0,71.66,41Z" fill="#000000"/><path class="cls-1" d="M101,41c-2,.09-3.6,2.53-2.4,4.2a20.83,20.83,0,0,0,4.68,4.69c1.7,1.2,4.11-.38,4.18-2.44C107.48,45.63,102.77,41,101,41Z" fill="#000000"/><path class="cls-1" d="M88.38,47.9c1.56,1.41,1.4,8-.23,9.26a2.73,2.73,0,0,1-4.5-1.61,21.28,21.28,0,0,1,0-6.07A2.87,2.87,0,0,1,88.38,47.9Z" fill="#000000"/><path class="cls-1" d="M67.56,31.08c-1.4,1.56-8,1.4-9.26-.23a2.74,2.74,0,0,1,1.62-4.5,21.22,21.22,0,0,1,6.06,0A2.87,2.87,0,0,1,67.56,31.08Z" fill="#000000"/><path class="cls-1" d="M105.08,31.08c1.41,1.56,8,1.4,9.26-.23a2.73,2.73,0,0,0-1.61-4.5,21.28,21.28,0,0,0-6.07,0A2.87,2.87,0,0,0,105.08,31.08Z" fill="#000000"/></svg>