<svg xmlns="http://www.w3.org/2000/svg" id="Capa_1" data-name="Capa 1" viewBox="0 0 120 120"><defs fill="#000000"><style>.cls-1{fill:#000000;}</style></defs><path class="cls-1" d="M91.88,96.64C95,100.13,98,103.48,101,106.85c2,2.25,2.11,4.72.3,6.4s-4.41,1.39-6.51-.93c-3.14-3.45-6.25-6.93-9.46-10.49-16.87,10.12-33.71,10.2-50.81,0l-7.76,8.54c-.78.86-1.51,1.78-2.34,2.6a4.21,4.21,0,0,1-5.88.3,4.11,4.11,0,0,1-.2-5.87c2.91-3.35,5.92-6.61,8.88-9.91.25-.28.48-.59.71-.87C6.17,74.27,13.31,43.55,30.3,29c16.62-14.2,43-14.13,59.43.13C107.16,44.26,113.18,74.91,91.88,96.64Zm-31.95,4.48a37.35,37.35,0,0,0,.13-74.7c-20.41-.16-37.52,16.92-37.48,37.43A37.5,37.5,0,0,0,59.93,101.12Z" fill="#000000"/><path class="cls-1" d="M101.21,5.69c6.31.24,12.79,4.1,16.48,11.89s2.66,15.13-2.53,21.89c-2.94,3.83-5.25,3.93-8.62.57L84.93,18.42c-3-3-2.91-5.09.27-7.79C89.14,7.29,93.72,5.61,101.21,5.69Zm9.06,25.88a12.36,12.36,0,0,0-2.8-14.26c-4-3.62-9.73-4.48-13.59-2.13Z" fill="#000000"/><path class="cls-1" d="M21,5.66a20.34,20.34,0,0,1,14.23,5.43c2.48,2.26,2.58,4.49.26,6.83Q24,29.41,12.51,40.84C10.31,43,8,42.93,5.81,40.71A20.77,20.77,0,0,1,21,5.66ZM9.49,31.32,25.8,15c-4.12-2.11-9.69-1.22-13.44,2.33A12.35,12.35,0,0,0,9.49,31.32Z" fill="#000000"/><path class="cls-1" d="M61.83,62.36c3.45,0,6.71,0,10,0,3,0,4.91,1.61,5,4.09s-1.88,4.25-5,4.26c-4.51,0-9,0-13.53,0-3.3,0-4.82-1.56-4.84-4.88q0-9.33,0-18.66c0-3,1.64-4.91,4.1-4.91s4.13,1.87,4.17,4.9c.06,4.67,0,9.33,0,14A9.68,9.68,0,0,0,61.83,62.36Z" fill="#000000"/></svg>