<svg id="Capa_1" data-name="Capa 1" xmlns="http://www.w3.org/2000/svg" viewBox="0 0 120 120"><defs><style>.cls-1{fill:#fff;}</style></defs><path class="cls-1" d="M118.63,21.69C115.34,9.69,105,1.32,92.21.16A29.91,29.91,0,0,0,63.32,16.59Q51.44,41,39.64,65.38a29.82,29.82,0,0,1-6.33,8.93c-5.23,5-10.26,10.18-15.37,15.3S7.85,99.67,2.83,104.72A8.8,8.8,0,0,0,.91,115c2.79,5.59,9.82,6.61,14.41,2q16.53-16.45,33-33a9.08,9.08,0,0,1,2.33-1.78c16.9-8.25,33.78-16.55,50.74-24.66,11.72-5.6,17.89-14.73,18.61-28.6C119.66,27.18,119.37,24.37,118.63,21.69Zm-70.4,34c6.21-12.75,12.29-25.57,18.68-38.23C72.37,6.62,85.55,1.17,97.17,4.57a8.09,8.09,0,0,1,.86.34A40.12,40.12,0,0,0,82.72,11.8c-.75.54-1.47,1.12-2.2,1.7l0,0-.37.36-.32.27a2.69,2.69,0,0,0-.57.61l-4.83,4.75a3.92,3.92,0,0,0-.25.32c-3,4.3-6,8.59-8.93,13-6.72,10.14-13.36,20.33-20,30.5A3.35,3.35,0,0,1,44,64.44Q46.1,60.06,48.23,55.68Zm-8,31.51q-13.66,13.68-27.33,27.33c-1.58,1.59-3.38,2.4-5.63,1.67a5.21,5.21,0,0,1-2.31-8.55c.9-1,1.89-1.92,2.85-2.88L32.36,80.19c.39-.4.81-.77,1.12-1.07l7.4,7.32C40.68,86.66,40.46,86.94,40.21,87.19Zm3.37-3.54-7.27-7.34,2.27-2,7.23,7.21Zm3.68-16.31a2.26,2.26,0,0,1-.91.69c.14-.27.26-.56.42-.82Q60.12,46.89,73.49,26.55c1-1.56,2.2-3,3.34-4.51a2.71,2.71,0,0,0,.24-.35c.05,0,.08,0,.1,0,.18-.18,2.84-3,4.91-4.93a35.93,35.93,0,0,1,13.1-7.33A16.38,16.38,0,0,1,104.13,9c-.06.17-.07.37-.16.42C93.81,15.3,85.58,23.43,77.91,32.18Q62.54,49.72,47.26,67.34Zm2.29,3.33-.27-.26c2.44-2.8,4.87-5.61,7.32-8.41C66,51.28,75.25,40.46,84.78,29.89a88.14,88.14,0,0,1,19.55-16.61c1.18-.72,2.47-1.24,3.72-1.85l.38.32a17.92,17.92,0,0,1-.82,2.19,61.58,61.58,0,0,1-12.1,15.78c-7.26,7-14.8,13.68-22.33,20.39-7.37,6.57-14.87,13-22.32,19.48C50.43,70,50,70.31,49.55,70.67Zm2.43,3-.32-.34a8.39,8.39,0,0,0,1.1-.73C65.58,61.42,78.46,50.32,91.16,39a99.09,99.09,0,0,0,18.41-21.28c.4-.64.77-1.3,1.16-1.95,1.35,5,0,9.57-2.12,13.92A41.86,41.86,0,0,1,93.8,46.24Q73.25,59.83,52.63,73.3C52.42,73.44,52.2,73.54,52,73.66ZM116.27,32c-1.2,11-7.19,18.17-17,22.79-14,6.59-27.87,13.5-41.79,20.27-.45.22-.92.4-1.38.59l-.14-.33q7-4.57,13.93-9.15c9-5.91,18.1-11.65,26.94-17.79,8.65-6,15-13.92,17.56-24.38.17-.64.3-1.29.47-2C116,23.79,116.62,28.81,116.27,32Z"/></svg>