<svg id="Capa_1" data-name="Capa 1" xmlns="http://www.w3.org/2000/svg" viewBox="0 0 120 120"><defs><style>.cls-1{fill:#fff;}</style></defs><path id="Shape" class="cls-1" d="M63.62,78.39v27.06a4.38,4.38,0,0,1-8.75,0V94.66a14.48,14.48,0,0,0,0-15.76V77.14a4.59,4.59,0,0,1,7.46-1.83,4.34,4.34,0,0,1,1.29,3.08Z"/><path class="cls-1" d="M84,73.54a4.38,4.38,0,1,1,8.75,0V98.16a4.38,4.38,0,0,1-8.75,0Z"/><path class="cls-1" d="M78.21,103.05a4.38,4.38,0,0,1-8.76,0V78.39a4.34,4.34,0,0,1,4.34-4.33h.09a4.33,4.33,0,0,1,4.33,4.33Z"/><path class="cls-1" d="M44.61,104.93a4.36,4.36,0,0,1-4.33-4.38V94.39l1.38,1.39A8.7,8.7,0,0,0,49,98.26v2.3a4.37,4.37,0,0,1-4.42,4.37Z"/><path class="cls-1" d="M110.23,71.9H98.46A10.18,10.18,0,0,0,79,69.65a10.08,10.08,0,0,0-5.11-1.42h-.09a10.12,10.12,0,0,0-7.24,3s-.06-.08-.1-.11a10.1,10.1,0,0,0-7.2-2.94,10.5,10.5,0,0,0-9.18,5.42l-.89-.9-3.47-3.5A34.2,34.2,0,0,0,58.8,58.16c.2-.28.36-.58.55-.87h50.88Z"/><path class="cls-1" d="M44.87,28.91a8.59,8.59,0,0,0,1.25-4.47V13.09A2.91,2.91,0,0,1,49,10.17H78.21a2.91,2.91,0,0,1,2.91,2.92c0,22.21-1.24,12.24,5.75,24.32a25,25,0,0,1,3,14.07H62.45c.39-.9.78-1.81,1.1-2.76A2.92,2.92,0,0,0,58,46.83a32.62,32.62,0,0,1-4,8A28.07,28.07,0,0,1,39.81,65.34a2.91,2.91,0,0,0-1.37,4.88c3.24,3.27,9.73,9.79,11.38,11.54a8.55,8.55,0,0,1-.12,10.09,2.86,2.86,0,0,1-3.9-.18L24.53,70.23a4.52,4.52,0,0,1-.63-5.54Z"/><path class="cls-1" d="M18.89,61.69a10.37,10.37,0,0,0-.28,10.23H11.17v33.57H0V63.54a6.25,6.25,0,0,1,6.25-6.26l15.2,0Z"/><path class="cls-1" d="M108.84,57.29H120a0,0,0,0,1,0,0v48.22a0,0,0,0,1,0,0h-4.92a6.24,6.24,0,0,1-6.24-6.24v-42a0,0,0,0,1,0,0Z" transform="translate(228.84 162.79) rotate(180)"/></svg>