<?xml version="1.0" encoding="utf-8"?>
<!-- Generator: Adobe Illustrator 26.1.0, SVG Export Plug-In . SVG Version: 6.00 Build 0)  -->
<svg version="1.1" id="Capa_1" xmlns="http://www.w3.org/2000/svg" xmlns:xlink="http://www.w3.org/1999/xlink" x="0px" y="0px"
	 viewBox="0 0 120 120" style="enable-background:new 0 0 120 120;" xml:space="preserve">
<style type="text/css">
	.st0{fill:#FFFFFF;}
</style>
<g>
	<path class="st0" d="M91.7,33.7H80c-1.4,0-2.5,1.1-2.5,2.5v61.5c0,1.4,1.1,2.5,2.5,2.5h11.7c1.4,0,2.5-1.1,2.5-2.5V36.2
		C94.2,34.8,93.1,33.7,91.7,33.7z"/>
	<path class="st0" d="M14.2,83.5H2.5C1.1,83.5,0,84.6,0,86c0,0,0,0,0,0v11.7c0,1.4,1.1,2.5,2.5,2.5h11.7c1.4,0,2.5-1.1,2.5-2.5V86
		C16.7,84.6,15.6,83.5,14.2,83.5C14.2,83.5,14.2,83.5,14.2,83.5L14.2,83.5z"/>
	<path class="st0" d="M65.9,48.6H54.1c-1.4,0-2.5,1.1-2.5,2.5v46.7c0,1.4,1.1,2.5,2.5,2.5h11.7c1.4,0,2.5-1.1,2.5-2.5V51.1
		C68.4,49.7,67.2,48.6,65.9,48.6z"/>
	<path class="st0" d="M40.1,68.6H28.3c-1.4,0-2.5,1.1-2.5,2.5v26.6c0,1.4,1.1,2.5,2.5,2.5h11.7c1.4,0,2.5-1.1,2.5-2.5V71.1
		C42.5,69.7,41.4,68.6,40.1,68.6z"/>
	<path class="st0" d="M117.5,19.8h-11.7c-1.4,0-2.5,1.1-2.5,2.5v75.4c0,1.4,1.1,2.5,2.5,2.5h11.7c1.4,0,2.5-1.1,2.5-2.5V22.3
		C120,20.9,118.9,19.8,117.5,19.8z"/>
</g>
</svg>
